<?xml version="1.0" standalone="no"?>
<!DOCTYPE svg PUBLIC "-//W3C//DTD SVG 20010904//EN"
 "http://www.w3.org/TR/2001/REC-SVG-20010904/DTD/svg10.dtd">
<svg version="1.0" xmlns="http://www.w3.org/2000/svg"
 width="425.000000pt" height="425.000000pt" viewBox="0 0 425.000000 425.000000"
 preserveAspectRatio="xMidYMid meet">
<metadata>
Created by potrace 1.11, written by Peter Selinger 2001-2013
</metadata>
<g transform="translate(0.000000,425.000000) scale(0.100000,-0.100000)"
fill="#000000" stroke="none">
<path d="M940 4234 c-477 -87 -839 -448 -924 -921 -12 -64 -14 -276 -15 -1188
0 -1187 -1 -1161 50 -1330 102 -340 391 -633 731 -740 154 -49 215 -54 618
-52 l375 2 0 681 0 681 -160 0 c-402 -1 -566 43 -715 193 -100 100 -141 199
-158 380 -14 148 -5 582 13 610 2 4 7 22 10 41 18 103 141 263 247 321 86 48
192 81 291 93 23 3 67 10 97 15 54 9 81 12 230 26 65 6 90 9 135 13 6 1 10 38
11 89 1 64 6 99 21 132 92 207 413 222 529 24 31 -53 32 -58 33 -160 l1 -80
53 -3 c161 -7 441 -36 531 -56 12 -2 39 -7 60 -10 60 -8 172 -50 233 -87 133
-80 227 -213 252 -356 41 -231 32 -649 -16 -791 -46 -137 -147 -252 -273 -313
-297 -143 -610 -58 -713 194 -21 51 -22 67 -22 405 0 341 1 352 21 380 43 58
134 62 185 7 l24 -26 5 -337 c5 -311 6 -339 24 -366 28 -42 55 -62 105 -76
153 -43 349 42 406 178 16 38 19 52 34 178 11 95 6 404 -8 490 -22 130 -94
216 -221 263 -94 34 -364 69 -650 84 -28 2 -29 -11 -29 -524 -1 -288 -3 -532
-5 -543 -29 -140 -151 -276 -301 -336 l-40 -17 0 -701 0 -702 615 2 c566 1
622 2 705 20 170 36 274 80 416 174 253 169 440 461 484 760 18 124 17 2242
-2 2350 -60 353 -284 659 -600 820 -87 45 -200 85 -278 100 -22 5 -47 11 -55
14 -8 3 -526 6 -1150 7 -922 2 -1149 -1 -1210 -12z"/>
<path d="M2038 3203 c-19 -5 -20 -9 -22 -85 -1 -50 -1 -50 49 -50 56 0 55 -1
55 61 0 33 -5 63 -10 66 -15 9 -52 13 -72 8z"/>
<path d="M2025 2822 c-12 -8 -15 -1152 -4 -1152 12 0 69 60 84 90 14 27 16 90
16 503 0 260 0 493 0 520 l-1 47 -42 0 c-24 0 -48 -4 -53 -8z"/>
<path d="M1728 2815 c-2 -2 -39 -6 -83 -9 -44 -4 -96 -8 -115 -11 -19 -2 -57
-7 -85 -10 -196 -24 -292 -55 -364 -121 -86 -77 -105 -158 -105 -449 -1 -322
14 -407 87 -483 65 -68 157 -105 297 -118 120 -11 400 -11 409 1 4 5 7 278 7
605 l-1 595 -22 1 c-12 1 -24 0 -25 -1z"/>
</g>
</svg>
